<svg version="1.1" id="Layer_1" xmlns="http://www.w3.org/2000/svg" xmlns:xlink="http://www.w3.org/1999/xlink" x="0px" y="0px"
	 width="100%" viewBox="0 0 1526 1526" enable-background="new 0 0 1526 1526" xml:space="preserve">
<path fill="#000000" opacity="1.000000" stroke="none" 
	d="
M1527.000000,582.000000 
	C1527.000000,897.307556 1527.000000,1212.115112 1527.000000,1526.961426 
	C1018.400696,1526.961426 509.801361,1526.961426 1.101016,1526.961426 
	C1.101016,1018.442322 1.101016,509.884552 1.101016,1.163412 
	C509.666626,1.163412 1018.333313,1.163412 1527.000000,1.163412 
	C1527.000000,194.532227 1527.000000,388.016113 1527.000000,582.000000 
M51.971497,941.566162 
	C56.731079,958.198364 61.568951,974.808899 66.187881,991.480042 
	C67.178238,995.054504 69.031273,996.576050 72.689095,997.010315 
	C83.068611,998.242493 93.386375,999.997314 103.767509,1001.212830 
	C134.315674,1004.789551 164.917221,1007.617065 195.736725,1006.152344 
	C207.973618,1005.570740 220.218369,1005.030396 232.431824,1004.105408 
	C257.381042,1002.215881 281.880676,997.631470 305.946747,990.843933 
	C360.673920,975.408997 408.357513,948.183655 447.210876,906.201111 
	C468.858704,882.809875 485.422668,855.829834 502.000549,828.868896 
	C524.094849,792.936523 538.015625,753.601013 548.937500,713.168274 
	C571.845703,628.362488 594.493652,543.485596 616.962585,458.562286 
	C631.261780,404.517487 648.968689,351.801300 675.224304,302.233734 
	C708.819763,238.809341 752.755615,184.013245 810.118530,140.415390 
	C857.194031,104.636253 909.473511,79.330116 966.199402,62.989712 
	C968.071106,62.450584 969.863770,61.636921 971.693237,60.951225 
	C971.701782,60.268597 971.710327,59.585972 971.718933,58.903347 
	C944.354980,52.934418 917.115662,46.288643 889.586182,41.218472 
	C868.907715,37.410061 847.905334,35.120003 826.956116,33.096699 
	C809.486328,31.409452 791.893494,30.719265 774.337891,30.285423 
	C760.407654,29.941174 746.441589,30.402040 732.508301,30.941536 
	C680.750549,32.945591 629.760925,40.414532 579.666260,53.563198 
	C447.520905,88.248215 333.678802,154.552734 238.208740,252.242111 
	C168.261871,323.815002 115.378471,406.459442 79.190971,499.744354 
	C57.001724,556.944214 42.321186,616.076477 35.340527,677.018677 
	C32.806648,699.139832 30.764673,721.407104 30.266788,743.647278 
	C29.739756,767.189636 30.729980,790.814819 32.158363,814.336975 
	C33.343655,833.856140 35.324783,853.406616 38.411621,872.710022 
	C42.059742,895.523193 47.274761,918.085754 51.971497,941.566162 
M1082.902588,1424.396240 
	C1203.243408,1365.608032 1300.384155,1280.311523 1375.580444,1168.754761 
	C1374.519409,1168.054565 1373.776733,1167.658569 1373.142334,1167.132202 
	C1332.233032,1133.184204 1290.496948,1100.320312 1246.364868,1070.608032 
	C1190.062744,1032.702271 1130.909668,1000.480164 1065.902710,979.847168 
	C1005.895325,960.801025 944.536987,953.334229 881.745972,958.029114 
	C867.527649,959.092285 853.279358,960.160889 839.165100,962.101685 
	C822.213806,964.432495 805.262573,967.096802 788.536438,970.670532 
	C731.540405,982.848572 677.024719,1002.570435 623.560730,1025.516113 
	C539.111084,1061.760132 452.892700,1092.287109 361.192566,1104.449707 
	C346.979645,1106.334717 332.692017,1108.490356 318.402832,1108.787598 
	C291.050110,1109.357056 263.623016,1109.953247 236.403198,1105.894653 
	C222.795670,1103.865845 209.023941,1102.575439 195.621765,1099.614624 
	C173.739990,1094.780273 152.080688,1088.927002 130.366226,1083.352783 
	C120.291504,1080.766602 110.307884,1077.825684 100.142479,1075.006592 
	C100.142479,1075.926880 100.053154,1076.285278 100.159645,1076.570801 
	C100.449478,1077.347778 100.805267,1078.101929 101.164337,1078.851074 
	C140.604736,1161.142822 193.282974,1233.811279 259.646271,1296.481079 
	C345.947601,1377.979126 446.103790,1435.355225 560.049744,1468.644775 
	C605.807983,1482.013062 652.540344,1490.309326 699.926758,1494.866577 
	C715.118530,1496.327393 730.444031,1496.548828 745.718445,1496.970703 
	C806.090515,1498.637451 865.758850,1492.782227 924.690613,1479.610962 
	C979.313171,1467.402832 1031.801270,1449.004639 1082.902588,1424.396240 
M1392.596558,385.941162 
	C1375.012329,360.512970 1358.392456,334.347351 1339.635010,309.816223 
	C1304.781372,264.234558 1264.016724,224.260956 1219.035156,188.619049 
	C1169.576660,149.429855 1115.987793,117.091637 1058.158447,91.826767 
	C1056.402832,91.059761 1053.824707,90.788300 1052.124268,91.487556 
	C1020.659973,104.425652 990.121399,119.150642 962.200989,138.839554 
	C922.135864,167.092575 891.403931,202.786697 874.606445,249.403748 
	C864.814697,276.578308 860.190857,304.906158 856.729004,333.475647 
	C852.460571,368.701904 852.378357,403.966705 857.345825,439.027405 
	C861.576782,468.889496 869.700500,497.895203 880.711426,526.059082 
	C896.573364,566.631104 917.409119,604.732605 938.290771,642.815247 
	C960.012085,682.429199 986.995544,717.886169 1021.003296,747.877441 
	C1053.711304,776.722534 1089.360229,801.535950 1125.928467,825.096497 
	C1153.075562,842.587158 1181.066162,858.846619 1207.525024,877.310913 
	C1255.100464,910.511658 1297.216797,950.127014 1336.961304,992.261658 
	C1366.375854,1023.445251 1394.068115,1056.035889 1416.858887,1092.513794 
	C1417.275269,1093.180420 1417.540405,1093.941528 1418.052612,1095.035522 
	C1523.956055,890.256958 1531.174927,615.902771 1392.596558,385.941162 
M885.692200,755.040283 
	C883.168457,727.723328 872.215820,704.138123 852.345215,685.442505 
	C817.875488,653.010803 776.890808,643.334473 731.192505,654.149536 
	C682.791565,665.604248 636.495544,711.017334 642.039673,773.602539 
	C644.462219,800.948547 656.023010,824.231995 675.964417,842.801208 
	C706.256714,871.009033 742.260620,881.545227 783.375061,876.124878 
	C844.122620,868.116150 888.097595,816.869019 885.692200,755.040283 
z"/>
<path fill="#F40606" opacity="1.000000" stroke="none" 
	d="
M51.891014,941.161560 
	C47.274761,918.085754 42.059742,895.523193 38.411621,872.710022 
	C35.324783,853.406616 33.343655,833.856140 32.158363,814.336975 
	C30.729980,790.814819 29.739756,767.189636 30.266788,743.647278 
	C30.764673,721.407104 32.806648,699.139832 35.340527,677.018677 
	C42.321186,616.076477 57.001724,556.944214 79.190971,499.744354 
	C115.378471,406.459442 168.261871,323.815002 238.208740,252.242111 
	C333.678802,154.552734 447.520905,88.248215 579.666260,53.563198 
	C629.760925,40.414532 680.750549,32.945591 732.508301,30.941536 
	C746.441589,30.402040 760.407654,29.941174 774.337891,30.285423 
	C791.893494,30.719265 809.486328,31.409452 826.956116,33.096699 
	C847.905334,35.120003 868.907715,37.410061 889.586182,41.218472 
	C917.115662,46.288643 944.354980,52.934418 971.718933,58.903347 
	C971.710327,59.585972 971.701782,60.268597 971.693237,60.951225 
	C969.863770,61.636921 968.071106,62.450584 966.199402,62.989712 
	C909.473511,79.330116 857.194031,104.636253 810.118530,140.415390 
	C752.755615,184.013245 708.819763,238.809341 675.224304,302.233734 
	C648.968689,351.801300 631.261780,404.517487 616.962585,458.562286 
	C594.493652,543.485596 571.845703,628.362488 548.937500,713.168274 
	C538.015625,753.601013 524.094849,792.936523 502.000549,828.868896 
	C485.422668,855.829834 468.858704,882.809875 447.210876,906.201111 
	C408.357513,948.183655 360.673920,975.408997 305.946747,990.843933 
	C281.880676,997.631470 257.381042,1002.215881 232.431824,1004.105408 
	C220.218369,1005.030396 207.973618,1005.570740 195.736725,1006.152344 
	C164.917221,1007.617065 134.315674,1004.789551 103.767509,1001.212830 
	C93.386375,999.997314 83.068611,998.242493 72.689095,997.010315 
	C69.031273,996.576050 67.178238,995.054504 66.187881,991.480042 
	C61.568951,974.808899 56.731079,958.198364 51.891014,941.161560 
z"/>
<path fill="#F40606" opacity="1.000000" stroke="none" 
	d="
M1082.576660,1424.586792 
	C1031.801270,1449.004639 979.313171,1467.402832 924.690613,1479.610962 
	C865.758850,1492.782227 806.090515,1498.637451 745.718445,1496.970703 
	C730.444031,1496.548828 715.118530,1496.327393 699.926758,1494.866577 
	C652.540344,1490.309326 605.807983,1482.013062 560.049744,1468.644775 
	C446.103790,1435.355225 345.947601,1377.979126 259.646271,1296.481079 
	C193.282974,1233.811279 140.604736,1161.142822 101.164337,1078.851074 
	C100.805267,1078.101929 100.449478,1077.347778 100.159645,1076.570801 
	C100.053154,1076.285278 100.142479,1075.926880 100.142479,1075.006592 
	C110.307884,1077.825684 120.291504,1080.766602 130.366226,1083.352783 
	C152.080688,1088.927002 173.739990,1094.780273 195.621765,1099.614624 
	C209.023941,1102.575439 222.795670,1103.865845 236.403198,1105.894653 
	C263.623016,1109.953247 291.050110,1109.357056 318.402832,1108.787598 
	C332.692017,1108.490356 346.979645,1106.334717 361.192566,1104.449707 
	C452.892700,1092.287109 539.111084,1061.760132 623.560730,1025.516113 
	C677.024719,1002.570435 731.540405,982.848572 788.536438,970.670532 
	C805.262573,967.096802 822.213806,964.432495 839.165100,962.101685 
	C853.279358,960.160889 867.527649,959.092285 881.745972,958.029114 
	C944.536987,953.334229 1005.895325,960.801025 1065.902710,979.847168 
	C1130.909668,1000.480164 1190.062744,1032.702271 1246.364868,1070.608032 
	C1290.496948,1100.320312 1332.233032,1133.184204 1373.142334,1167.132202 
	C1373.776733,1167.658569 1374.519409,1168.054565 1375.580444,1168.754761 
	C1300.384155,1280.311523 1203.243408,1365.608032 1082.576660,1424.586792 
z"/>
<path fill="#F40606" opacity="1.000000" stroke="none" 
	d="
M1392.784546,386.254547 
	C1531.174927,615.902771 1523.956055,890.256958 1418.052612,1095.035522 
	C1417.540405,1093.941528 1417.275269,1093.180420 1416.858887,1092.513794 
	C1394.068115,1056.035889 1366.375854,1023.445251 1336.961304,992.261658 
	C1297.216797,950.127014 1255.100464,910.511658 1207.525024,877.310913 
	C1181.066162,858.846619 1153.075562,842.587158 1125.928467,825.096497 
	C1089.360229,801.535950 1053.711304,776.722534 1021.003296,747.877441 
	C986.995544,717.886169 960.012085,682.429199 938.290771,642.815247 
	C917.409119,604.732605 896.573364,566.631104 880.711426,526.059082 
	C869.700500,497.895203 861.576782,468.889496 857.345825,439.027405 
	C852.378357,403.966705 852.460571,368.701904 856.729004,333.475647 
	C860.190857,304.906158 864.814697,276.578308 874.606445,249.403748 
	C891.403931,202.786697 922.135864,167.092575 962.200989,138.839554 
	C990.121399,119.150642 1020.659973,104.425652 1052.124268,91.487556 
	C1053.824707,90.788300 1056.402832,91.059761 1058.158447,91.826767 
	C1115.987793,117.091637 1169.576660,149.429855 1219.035156,188.619049 
	C1264.016724,224.260956 1304.781372,264.234558 1339.635010,309.816223 
	C1358.392456,334.347351 1375.012329,360.512970 1392.784546,386.254547 
z"/>
<path fill="#F40606" opacity="1.000000" stroke="none" 
	d="
M885.747559,755.498047 
	C888.097595,816.869019 844.122620,868.116150 783.375061,876.124878 
	C742.260620,881.545227 706.256714,871.009033 675.964417,842.801208 
	C656.023010,824.231995 644.462219,800.948547 642.039673,773.602539 
	C636.495544,711.017334 682.791565,665.604248 731.192505,654.149536 
	C776.890808,643.334473 817.875488,653.010803 852.345215,685.442505 
	C872.215820,704.138123 883.168457,727.723328 885.747559,755.498047 
z"/>
</svg>